<mxfile host="app.diagrams.net" modified="2023-07-21T11:56:16.429Z" agent="Mozilla/5.0 (Windows NT 10.0; Win64; x64) AppleWebKit/537.36 (KHTML, like Gecko) Chrome/114.0.0.0 Safari/537.36 Edg/114.0.1823.79" etag="Qcmj76dw-vy1sNX_G1Ye" version="21.6.3" type="github">
  <diagram name="Page-1" id="2YBvvXClWsGukQMizWep">
    <mxGraphModel dx="834" dy="543" grid="1" gridSize="10" guides="1" tooltips="1" connect="1" arrows="1" fold="1" page="1" pageScale="1" pageWidth="827" pageHeight="1169" math="0" shadow="0">
      <root>
        <mxCell id="0" />
        <mxCell id="1" parent="0" />
        <mxCell id="ysqjjSb5tepzdiBI0oHy-31" value="&lt;p style=&quot;font-size: 7px;&quot;&gt;Matrix of view 1&lt;br style=&quot;font-size: 7px;&quot;&gt;&lt;/p&gt;" style="rounded=0;whiteSpace=wrap;html=1;fontSize=7;" vertex="1" parent="1">
          <mxGeometry x="40" y="130" width="50" height="50" as="geometry" />
        </mxCell>
      </root>
    </mxGraphModel>
  </diagram>
</mxfile>
